<svg width="599" height="118" viewBox="0 0 599 118" fill="none" xmlns="http://www.w3.org/2000/svg">
<path d="M223.146 57.1533C226.115 58.0973 228.441 59.6763 230.123 61.9075C231.805 64.0872 232.646 66.7819 232.646 69.9999C232.646 74.5482 230.869 78.0666 227.299 80.5381C223.789 82.9667 218.64 84.1767 211.861 84.1767H184.992V32.2153H210.376C216.71 32.2153 221.558 33.4253 224.922 35.8539C228.338 38.2825 230.045 41.5692 230.045 45.7227C230.045 48.2457 229.428 50.4941 228.192 52.4764C227.008 54.4502 225.317 56.012 223.146 57.1533ZM195.796 41.2689V53.5148H208.892C211.861 53.5148 214.109 52.9913 215.646 51.9529C217.182 50.9146 217.945 49.3785 217.945 47.3532C217.945 45.328 217.182 43.8176 215.646 42.8221C214.109 41.7838 211.861 41.2603 208.892 41.2603H195.796V41.2689ZM210.969 75.1146C214.135 75.1146 216.512 74.5911 218.091 73.5527C219.722 72.5143 220.537 70.9096 220.537 68.7299C220.537 64.4219 217.345 62.2765 210.96 62.2765H195.779V75.1146H210.969Z" fill="white"/>
<path d="M277.441 64.3536C277.441 64.4995 277.363 65.5378 277.218 67.4687H247.01C247.56 69.9402 248.838 71.8968 250.872 73.3299C252.897 74.763 255.429 75.4839 258.441 75.4839C260.518 75.4839 262.346 75.1835 263.933 74.5914C265.564 73.9478 267.074 72.9609 268.464 71.6222L274.626 78.2986C270.867 82.6066 265.375 84.752 258.149 84.752C253.644 84.752 249.662 83.8852 246.204 82.1517C242.737 80.3668 240.068 77.921 238.189 74.8059C236.309 71.6908 235.365 68.1552 235.365 64.1905C235.365 60.2859 236.283 56.7675 238.111 53.6524C239.991 50.4858 242.539 48.04 245.758 46.3066C249.027 44.5216 252.657 43.6377 256.665 43.6377C260.578 43.6377 264.113 44.4787 267.28 46.1607C270.447 47.8427 272.918 50.2712 274.703 53.4378C276.531 56.5529 277.441 60.1915 277.441 64.3536ZM256.733 52.3995C254.116 52.3995 251.91 53.1375 250.126 54.6221C248.341 56.1067 247.259 58.132 246.856 60.7064H266.525C266.13 58.1834 265.04 56.1754 263.255 54.6907C261.488 53.1632 259.308 52.3995 256.733 52.3995Z" fill="white"/>
<path d="M293.616 49.5072C294.998 47.5764 296.86 46.1175 299.186 45.1306C301.563 44.1437 304.283 43.646 307.347 43.646V54.33C306.06 54.2271 305.193 54.1842 304.747 54.1842C301.434 54.1842 298.834 55.1281 296.955 57.0075C295.075 58.8354 294.131 61.6072 294.131 65.323V84.1767H282.555V44.2381H293.616V49.5072Z" fill="white"/>
<path d="M311.63 44.2383H323.207V84.1683H311.63V44.2383ZM317.423 38.6689C315.294 38.6689 313.561 38.051 312.231 36.8153C310.892 35.5795 310.223 34.0434 310.223 32.2155C310.223 30.3877 310.892 28.8516 312.231 27.6158C313.569 26.3801 315.303 25.7622 317.423 25.7622C319.551 25.7622 321.284 26.3543 322.614 27.5472C323.953 28.7314 324.623 30.216 324.623 32.001C324.623 33.9319 323.953 35.5366 322.614 36.8238C321.284 38.051 319.551 38.6689 317.423 38.6689Z" fill="white"/>
<path d="M350.66 84.7605C346.403 84.7605 342.567 83.8938 339.152 82.1603C335.788 80.3754 333.136 77.9296 331.214 74.8145C329.335 71.6994 328.391 68.1638 328.391 64.1991C328.391 60.243 329.335 56.6988 331.214 53.5837C333.145 50.4686 335.788 48.04 339.152 46.3066C342.567 44.5216 346.403 43.6377 350.66 43.6377C354.865 43.6377 358.529 44.5302 361.644 46.3066C364.811 48.04 367.111 50.5373 368.544 53.8068L359.567 58.6297C357.491 54.9654 354.496 53.1375 350.583 53.1375C347.562 53.1375 345.065 54.1244 343.082 56.1067C341.1 58.089 340.113 60.7837 340.113 64.1991C340.113 67.6146 341.1 70.3092 343.082 72.2915C345.065 74.2739 347.562 75.2607 350.583 75.2607C354.539 75.2607 357.534 73.4329 359.567 69.7685L368.544 74.6686C367.111 77.8352 364.811 80.3067 361.644 82.0917C358.52 83.8681 354.865 84.7605 350.66 84.7605Z" fill="white"/>
<path d="M396.587 43.6458C401.539 43.6458 405.52 45.1304 408.533 48.0996C411.605 51.0688 413.132 55.4711 413.132 61.3066V84.1679H401.556V63.083C401.556 59.9164 400.861 57.5651 399.479 56.029C398.097 54.4414 396.089 53.6519 393.472 53.6519C390.554 53.6519 388.229 54.5701 386.495 56.398C384.762 58.1829 383.895 60.8518 383.895 64.4131V84.1593H372.318V32.8931H383.895V48.3914C385.431 46.8553 387.285 45.6968 389.464 44.9073C391.644 44.0663 394.013 43.6458 396.587 43.6458Z" fill="white"/>
<path d="M462.211 74.5656V84.2113H421.98V32.2671H461.241V41.9128H433.926V53.1975H458.049V62.5514H433.926V74.5742H462.211V74.5656Z" fill="#2EA944"/>
<path d="M493.243 84.1688L484.481 71.9229L475.427 84.1688H462.812L478.174 64.0536L463.327 44.2388H476.32L484.781 55.8925L493.466 44.2388H505.789L490.943 63.7618L506.381 84.1688H493.243Z" fill="#2EA944"/>
<path d="M533 43.646C536.715 43.646 540.079 44.5127 543.092 46.2462C546.164 47.9282 548.558 50.331 550.292 53.4461C552.025 56.5098 552.892 60.0968 552.892 64.2074C552.892 68.318 552.025 71.9222 550.292 75.0459C548.558 78.1095 546.164 80.5124 543.092 82.2459C540.071 83.9278 536.707 84.7688 533 84.7688C527.902 84.7688 523.895 83.1641 520.977 79.946V98.5766H509.4V44.2381H520.462V48.8378C523.328 45.3709 527.507 43.646 533 43.646ZM531 75.2605C533.969 75.2605 536.389 74.2736 538.269 72.2912C540.2 70.266 541.161 67.5628 541.161 64.1988C541.161 60.8349 540.2 58.166 538.269 56.1837C536.389 54.1584 533.961 53.1372 531 53.1372C528.031 53.1372 525.585 54.1498 523.654 56.1837C521.775 58.166 520.831 60.8349 520.831 64.1988C520.831 67.5628 521.775 70.2574 523.654 72.2912C525.577 74.2736 528.031 75.2605 531 75.2605Z" fill="#2EA944"/>
<path d="M577.049 84.7605C572.844 84.7605 569.059 83.8938 565.695 82.1603C562.383 80.3754 559.783 77.9296 557.903 74.8145C556.024 71.6994 555.08 68.1552 555.08 64.1991C555.08 60.243 556.015 56.6988 557.903 53.5837C559.783 50.4686 562.383 48.04 565.695 46.3066C569.059 44.5216 572.844 43.6377 577.049 43.6377C581.254 43.6377 585.013 44.5302 588.334 46.3066C591.646 48.04 594.246 50.46 596.126 53.5837C598.005 56.6988 598.949 60.2344 598.949 64.1991C598.949 68.1552 598.005 71.6994 596.126 74.8145C594.246 77.9296 591.646 80.3839 588.334 82.1603C585.013 83.8938 581.254 84.7605 577.049 84.7605ZM577.049 75.2607C580.018 75.2607 582.438 74.2739 584.326 72.2915C586.257 70.2663 587.218 67.5631 587.218 64.1991C587.218 60.8351 586.257 58.1663 584.326 56.1839C582.447 54.1587 580.018 53.1375 577.049 53.1375C574.08 53.1375 571.634 54.1501 569.703 56.1839C567.772 58.1663 566.811 60.8351 566.811 64.1991C566.811 67.5631 567.772 70.2577 569.703 72.2915C571.625 74.2739 574.08 75.2607 577.049 75.2607Z" fill="#2EA944"/>
<path d="M130.337 59.0075L117.722 84.1686L108.265 65.3064L120.571 56.3987H103.803L98.2422 45.3113L110.857 20.1416L130.337 59.0075Z" fill="#2EA944"/>
<path d="M50.4501 33.8462L37.8523 59.0159L37.8438 59.0073L50.4501 33.8462Z" fill="#6EB640"/>
<path d="M63.0648 58.9991L50.4499 84.1688L39.4141 62.1485L52.0204 36.9702L63.0648 58.9991Z" fill="#2EA944"/>
<path d="M50.451 33.8462L37.8361 59.0073L28.8855 76.8741C26.6457 81.3451 22.0546 84.1685 17.0344 84.1685H0L21.5655 41.1491C23.8052 36.6781 28.3964 33.8548 33.4166 33.8548H50.451V33.8462Z" fill="white"/>
<path d="M96.6781 42.179L95.3394 44.8478L95.3737 44.865L89.5897 56.3986H73.1989L85.2303 65.1089L79.3347 76.8656C77.095 81.3366 72.5038 84.16 67.4836 84.16H50.4492L63.0641 58.9903L80.4246 24.3637C82.6644 19.8927 87.2555 17.0693 92.2757 17.0693H109.25L96.6781 42.179Z" fill="white"/>
<path d="M109.311 17.0693L109.302 17.0951L96.6957 42.2305L95.3742 44.8564L95.3398 44.8393L96.6786 42.1704L109.242 17.0693H109.311Z" fill="#524E9C"/>
<path d="M184.992 0.300781L146.607 76.8655C144.367 81.3365 139.776 84.1598 134.756 84.1598H117.713L130.328 58.9987L156.107 7.59511C158.347 3.12411 162.938 0.300781 167.958 0.300781H184.992Z" fill="white"/>
<path d="M79.2773 84.0909H114.496L96.8867 71.3301L79.2773 84.0909Z" fill="#2EA944"/>
<path d="M195.257 99.1699H197.514L201.255 110.489L204.885 99.2128H207.692L202.388 114.531H200.088L196.347 103.598L192.605 114.531H190.305L185.002 99.2128H187.894L191.524 110.489L195.257 99.1699Z" fill="white"/>
<path d="M211.836 111.783C212.428 112.281 213.157 112.53 214.007 112.53C214.659 112.53 215.225 112.418 215.697 112.178C216.178 111.947 216.65 111.603 217.113 111.157L218.658 112.53C218.109 113.182 217.448 113.706 216.693 114.092C215.929 114.487 215.019 114.675 213.964 114.675C213.14 114.675 212.368 114.53 211.647 114.238C210.926 113.946 210.308 113.543 209.776 113.019C209.244 112.496 208.832 111.869 208.523 111.14C208.223 110.41 208.068 109.595 208.068 108.694C208.068 107.87 208.206 107.089 208.48 106.369C208.755 105.648 209.141 105.013 209.639 104.463C210.137 103.923 210.729 103.485 211.407 103.168C212.085 102.85 212.84 102.687 213.664 102.687C214.573 102.687 215.38 102.85 216.066 103.185C216.753 103.519 217.328 103.966 217.783 104.532C218.238 105.098 218.581 105.759 218.812 106.506C219.044 107.261 219.164 108.05 219.164 108.874C219.164 108.994 219.164 109.106 219.156 109.226C219.147 109.346 219.139 109.466 219.121 109.595H210.694C210.866 110.565 211.244 111.286 211.836 111.783ZM216.573 107.887C216.53 107.467 216.435 107.072 216.289 106.703C216.144 106.334 215.946 106.017 215.706 105.751C215.457 105.485 215.165 105.27 214.822 105.107C214.479 104.944 214.093 104.867 213.664 104.867C212.848 104.867 212.179 105.15 211.655 105.699C211.123 106.257 210.806 106.986 210.686 107.879H216.573V107.887Z" fill="white"/>
<path d="M239.769 111.235C239.469 111.973 239.074 112.599 238.576 113.114C238.078 113.629 237.503 114.015 236.86 114.272C236.216 114.53 235.555 114.667 234.869 114.667C233.925 114.667 233.144 114.461 232.526 114.058C231.9 113.655 231.385 113.183 230.981 112.642L231.007 114.427H228.355V98.5596H231.007V104.858C231.428 104.249 231.943 103.743 232.569 103.322C233.187 102.91 233.968 102.704 234.886 102.704C235.564 102.704 236.225 102.833 236.86 103.099C237.495 103.357 238.061 103.751 238.559 104.258C239.057 104.773 239.46 105.399 239.76 106.137C240.061 106.875 240.215 107.725 240.215 108.677C240.215 109.647 240.061 110.497 239.769 111.235ZM237.297 107.158C237.126 106.703 236.886 106.317 236.594 106C236.293 105.682 235.95 105.433 235.547 105.262C235.152 105.09 234.723 105.004 234.277 105.004C233.83 105.004 233.401 105.09 232.998 105.262C232.595 105.433 232.234 105.682 231.934 106.008C231.634 106.334 231.385 106.721 231.205 107.167C231.024 107.613 230.93 108.119 230.93 108.686C230.93 109.252 231.024 109.759 231.205 110.205C231.385 110.651 231.625 111.037 231.934 111.363C232.234 111.689 232.595 111.938 232.998 112.11C233.401 112.281 233.83 112.367 234.277 112.367C234.723 112.367 235.152 112.281 235.547 112.11C235.942 111.938 236.293 111.689 236.594 111.372C236.894 111.054 237.126 110.668 237.297 110.213C237.469 109.759 237.555 109.244 237.555 108.677C237.563 108.128 237.478 107.613 237.297 107.158Z" fill="white"/>
<path d="M250.427 102.954H253.079V114.427H250.427V112.625C250.05 113.183 249.586 113.664 249.02 114.058C248.454 114.462 247.733 114.659 246.857 114.659C245.553 114.659 244.549 114.264 243.845 113.466C243.142 112.668 242.781 111.596 242.781 110.248V102.945H245.433V109.45C245.433 110.343 245.647 111.038 246.068 111.518C246.488 111.999 247.089 112.248 247.87 112.248C248.634 112.248 249.252 111.999 249.724 111.501C250.196 111.003 250.436 110.308 250.436 109.407V102.954H250.427Z" fill="white"/>
<path d="M256.426 101.194V98.6973H259.275V101.194H256.426ZM256.537 114.427V102.954H259.189V114.427H256.537Z" fill="white"/>
<path d="M262.75 114.427V98.5596H265.402V114.427H262.75Z" fill="white"/>
<path d="M277.433 114.427V112.513C277.013 113.105 276.489 113.611 275.863 114.032C275.237 114.452 274.456 114.658 273.529 114.658C272.851 114.658 272.19 114.53 271.555 114.264C270.92 114.006 270.354 113.611 269.864 113.105C269.375 112.59 268.972 111.964 268.672 111.226C268.371 110.488 268.217 109.638 268.217 108.686C268.217 107.733 268.363 106.883 268.663 106.145C268.955 105.407 269.35 104.781 269.847 104.266C270.336 103.751 270.903 103.365 271.546 103.108C272.19 102.85 272.851 102.713 273.529 102.713C274.464 102.713 275.245 102.919 275.872 103.322C276.489 103.725 277.013 104.197 277.433 104.738V98.5679H280.085V114.435H277.433V114.427ZM277.21 107.167C277.03 106.72 276.79 106.334 276.481 106.008C276.18 105.682 275.82 105.433 275.417 105.261C275.013 105.09 274.593 105.004 274.164 105.004C273.718 105.004 273.297 105.09 272.894 105.253C272.499 105.416 272.147 105.665 271.847 105.982C271.546 106.3 271.306 106.686 271.135 107.141C270.963 107.596 270.877 108.119 270.877 108.694C270.877 109.26 270.963 109.767 271.135 110.23C271.306 110.685 271.546 111.071 271.847 111.389C272.147 111.706 272.499 111.955 272.894 112.127C273.289 112.298 273.718 112.384 274.164 112.384C274.593 112.384 275.013 112.298 275.417 112.127C275.82 111.955 276.172 111.706 276.481 111.38C276.781 111.054 277.03 110.668 277.21 110.222C277.39 109.775 277.485 109.269 277.485 108.703C277.476 108.128 277.39 107.621 277.21 107.167Z" fill="white"/>
<path d="M296.012 114.753C295.78 115.345 295.54 115.843 295.291 116.255C295.042 116.658 294.768 116.993 294.467 117.242C294.167 117.499 293.832 117.68 293.472 117.8C293.111 117.911 292.7 117.971 292.236 117.971C291.687 117.971 291.198 117.911 290.769 117.783C290.34 117.654 289.928 117.482 289.516 117.268L290.408 115.294C290.657 115.423 290.906 115.526 291.155 115.611C291.412 115.689 291.67 115.732 291.944 115.732C292.322 115.732 292.631 115.637 292.88 115.448C293.129 115.26 293.36 114.916 293.575 114.41L288.795 102.954H291.601L294.862 111.475L297.84 102.954H300.577L296.012 114.753Z" fill="white"/>
<path d="M313.321 111.011C313.012 111.732 312.583 112.367 312.043 112.916C311.502 113.457 310.85 113.894 310.095 114.212C309.339 114.529 308.524 114.692 307.64 114.692C306.773 114.692 305.967 114.538 305.22 114.229C304.474 113.92 303.83 113.491 303.289 112.95C302.749 112.41 302.32 111.775 302.019 111.062C301.719 110.342 301.564 109.578 301.564 108.745C301.564 107.922 301.719 107.141 302.028 106.411C302.337 105.682 302.766 105.038 303.307 104.498C303.847 103.957 304.491 103.519 305.237 103.202C305.984 102.884 306.799 102.721 307.683 102.721C308.567 102.721 309.382 102.876 310.129 103.185C310.875 103.494 311.519 103.923 312.06 104.463C312.6 105.004 313.029 105.639 313.33 106.368C313.63 107.089 313.785 107.87 313.785 108.694C313.793 109.518 313.639 110.29 313.321 111.011ZM310.884 107.295C310.712 106.849 310.472 106.454 310.163 106.111C309.854 105.768 309.485 105.502 309.065 105.304C308.636 105.107 308.172 105.012 307.649 105.012C307.125 105.012 306.662 105.107 306.233 105.304C305.804 105.502 305.443 105.768 305.143 106.094C304.843 106.428 304.611 106.815 304.456 107.252C304.302 107.698 304.216 108.17 304.216 108.677C304.216 109.183 304.302 109.664 304.474 110.118C304.645 110.573 304.886 110.968 305.194 111.303C305.503 111.637 305.872 111.903 306.293 112.092C306.722 112.29 307.185 112.384 307.683 112.384C308.215 112.384 308.696 112.29 309.116 112.092C309.545 111.895 309.906 111.629 310.206 111.303C310.506 110.968 310.738 110.582 310.901 110.144C311.056 109.707 311.141 109.226 311.141 108.72C311.141 108.231 311.056 107.75 310.884 107.295Z" fill="white"/>
<path d="M323.978 102.954H326.63V114.427H323.978V112.625C323.601 113.183 323.137 113.664 322.571 114.058C322.004 114.462 321.284 114.659 320.408 114.659C319.104 114.659 318.1 114.264 317.396 113.466C316.692 112.668 316.332 111.596 316.332 110.248V102.945H318.984V109.45C318.984 110.343 319.198 111.038 319.619 111.518C320.039 111.999 320.64 112.248 321.421 112.248C322.185 112.248 322.803 111.999 323.275 111.501C323.746 111.003 323.987 110.308 323.987 109.407V102.954H323.978Z" fill="white"/>
<path d="M332.587 114.427H329.936V102.954H332.587V105.537C332.948 104.67 333.463 103.975 334.132 103.451C334.801 102.928 335.642 102.688 336.655 102.73V105.511H336.5C335.917 105.511 335.393 105.605 334.913 105.794C334.432 105.983 334.02 106.266 333.677 106.644C333.325 107.021 333.059 107.493 332.87 108.068C332.682 108.643 332.587 109.304 332.587 110.059V114.427Z" fill="white"/>
<path d="M352.453 114.427V113.011C352.058 113.474 351.56 113.869 350.951 114.187C350.342 114.504 349.604 114.667 348.737 114.667C348.188 114.667 347.664 114.59 347.175 114.435C346.686 114.281 346.249 114.058 345.88 113.766C345.51 113.466 345.21 113.097 344.987 112.659C344.764 112.221 344.652 111.707 344.652 111.123V111.08C344.652 110.454 344.764 109.913 345.004 109.45C345.236 108.986 345.562 108.6 345.974 108.3C346.386 107.999 346.875 107.768 347.45 107.613C348.025 107.459 348.643 107.381 349.312 107.381C350.007 107.381 350.599 107.424 351.08 107.51C351.569 107.596 352.032 107.716 352.479 107.862V107.579C352.479 106.781 352.238 106.171 351.749 105.751C351.26 105.33 350.565 105.125 349.655 105.125C349.003 105.125 348.428 105.193 347.913 105.322C347.407 105.451 346.892 105.622 346.369 105.845L345.648 103.734C346.283 103.443 346.935 103.211 347.604 103.039C348.274 102.868 349.072 102.782 350.016 102.782C351.724 102.782 352.994 103.202 353.817 104.052C354.641 104.901 355.053 106.094 355.053 107.63V114.435H352.453V114.427ZM352.513 109.561C352.178 109.432 351.784 109.321 351.329 109.235C350.874 109.149 350.393 109.106 349.887 109.106C349.063 109.106 348.42 109.269 347.956 109.587C347.493 109.904 347.261 110.359 347.261 110.96V111.003C347.261 111.552 347.476 111.973 347.905 112.264C348.334 112.556 348.857 112.702 349.484 112.702C349.921 112.702 350.316 112.642 350.694 112.53C351.063 112.419 351.389 112.256 351.663 112.041C351.938 111.835 352.153 111.578 352.307 111.277C352.462 110.977 352.539 110.651 352.539 110.291V109.561H352.513Z" fill="white"/>
<path d="M366.81 114.427V112.513C366.39 113.105 365.866 113.611 365.24 114.032C364.613 114.452 363.833 114.658 362.906 114.658C362.228 114.658 361.567 114.53 360.932 114.264C360.297 114.006 359.731 113.611 359.241 113.105C358.752 112.59 358.349 111.964 358.049 111.226C357.748 110.488 357.594 109.638 357.594 108.686C357.594 107.733 357.74 106.883 358.04 106.145C358.332 105.407 358.727 104.781 359.224 104.266C359.713 103.751 360.28 103.365 360.923 103.108C361.567 102.85 362.228 102.713 362.906 102.713C363.841 102.713 364.622 102.919 365.248 103.322C365.866 103.725 366.39 104.197 366.81 104.738V98.5679H369.462V114.435H366.81V114.427ZM366.587 107.167C366.407 106.72 366.167 106.334 365.858 106.008C365.557 105.682 365.197 105.433 364.794 105.261C364.39 105.09 363.97 105.004 363.541 105.004C363.095 105.004 362.674 105.09 362.271 105.253C361.876 105.416 361.524 105.665 361.224 105.982C360.923 106.3 360.683 106.686 360.511 107.141C360.34 107.596 360.254 108.119 360.254 108.694C360.254 109.26 360.34 109.767 360.511 110.23C360.683 110.685 360.923 111.071 361.224 111.389C361.524 111.706 361.876 111.955 362.271 112.127C362.665 112.298 363.095 112.384 363.541 112.384C363.97 112.384 364.39 112.298 364.794 112.127C365.197 111.955 365.549 111.706 365.858 111.38C366.158 111.054 366.407 110.668 366.587 110.222C366.767 109.775 366.862 109.269 366.862 108.703C366.853 108.128 366.767 107.621 366.587 107.167Z" fill="white"/>
<path d="M380.679 102.954H383.442L378.748 114.513H376.379L371.668 102.954H374.491L377.581 111.381L380.679 102.954Z" fill="white"/>
<path d="M392.152 114.427V113.011C391.757 113.474 391.26 113.869 390.65 114.187C390.041 114.504 389.303 114.667 388.436 114.667C387.887 114.667 387.364 114.59 386.875 114.435C386.385 114.281 385.948 114.058 385.579 113.766C385.21 113.466 384.909 113.097 384.686 112.659C384.463 112.221 384.352 111.707 384.352 111.123V111.08C384.352 110.454 384.463 109.913 384.703 109.45C384.935 108.986 385.261 108.6 385.673 108.3C386.085 107.999 386.574 107.768 387.149 107.613C387.724 107.459 388.342 107.381 389.011 107.381C389.706 107.381 390.299 107.424 390.779 107.51C391.268 107.596 391.732 107.716 392.178 107.862V107.579C392.178 106.781 391.938 106.171 391.449 105.751C390.959 105.33 390.264 105.125 389.355 105.125C388.702 105.125 388.127 105.193 387.613 105.322C387.106 105.451 386.591 105.622 386.068 105.845L385.347 103.734C385.982 103.443 386.634 103.211 387.304 103.039C387.973 102.868 388.771 102.782 389.715 102.782C391.423 102.782 392.693 103.202 393.517 104.052C394.34 104.901 394.752 106.094 394.752 107.63V114.435H392.152V114.427ZM392.212 109.561C391.878 109.432 391.483 109.321 391.028 109.235C390.573 109.149 390.093 109.106 389.586 109.106C388.762 109.106 388.119 109.269 387.655 109.587C387.192 109.904 386.96 110.359 386.96 110.96V111.003C386.96 111.552 387.175 111.973 387.604 112.264C388.033 112.556 388.557 112.702 389.183 112.702C389.621 112.702 390.015 112.642 390.393 112.53C390.762 112.419 391.088 112.256 391.363 112.041C391.637 111.835 391.852 111.578 392.006 111.277C392.161 110.977 392.238 110.651 392.238 110.291V109.561H392.212Z" fill="white"/>
<path d="M400.536 114.426H397.885V102.953H400.536V104.755C400.725 104.48 400.931 104.214 401.154 103.974C401.377 103.734 401.635 103.519 401.935 103.33C402.236 103.142 402.553 102.987 402.914 102.884C403.265 102.773 403.669 102.721 404.115 102.721C405.419 102.721 406.423 103.116 407.127 103.914C407.831 104.712 408.191 105.785 408.191 107.132V114.435H405.54V107.93C405.54 107.038 405.325 106.343 404.904 105.862C404.484 105.381 403.883 105.133 403.102 105.133C402.339 105.133 401.721 105.381 401.249 105.879C400.777 106.377 400.536 107.072 400.536 107.973V114.426Z" fill="white"/>
<path d="M414.559 110.84C414.559 111.347 414.679 111.716 414.928 111.939C415.177 112.162 415.52 112.273 415.975 112.273C416.541 112.273 417.082 112.145 417.605 111.879V114.033C417.271 114.221 416.919 114.367 416.541 114.47C416.164 114.573 415.726 114.625 415.237 114.625C414.756 114.625 414.319 114.565 413.907 114.453C413.495 114.333 413.143 114.144 412.843 113.887C412.542 113.629 412.311 113.278 412.156 112.848C411.993 112.419 411.916 111.887 411.916 111.244V105.185H410.457V102.945H411.916V99.7959H414.568V102.945H417.657V105.185H414.568V110.84H414.559Z" fill="white"/>
<path d="M427.285 114.427V113.011C426.89 113.474 426.393 113.869 425.783 114.187C425.174 114.504 424.436 114.667 423.569 114.667C423.02 114.667 422.497 114.59 422.007 114.435C421.518 114.281 421.081 114.058 420.712 113.766C420.343 113.466 420.042 113.097 419.819 112.659C419.596 112.221 419.484 111.707 419.484 111.123V111.08C419.484 110.454 419.596 109.913 419.836 109.45C420.068 108.986 420.394 108.6 420.806 108.3C421.218 107.999 421.707 107.768 422.282 107.613C422.857 107.459 423.475 107.381 424.144 107.381C424.839 107.381 425.431 107.424 425.912 107.51C426.401 107.596 426.865 107.716 427.311 107.862V107.579C427.311 106.781 427.07 106.171 426.581 105.751C426.092 105.33 425.397 105.125 424.487 105.125C423.835 105.125 423.26 105.193 422.745 105.322C422.239 105.451 421.724 105.622 421.201 105.845L420.48 103.734C421.115 103.443 421.767 103.211 422.436 103.039C423.106 102.868 423.904 102.782 424.848 102.782C426.556 102.782 427.826 103.202 428.649 104.052C429.473 104.901 429.885 106.094 429.885 107.63V114.435H427.285V114.427ZM427.354 109.561C427.019 109.432 426.624 109.321 426.169 109.235C425.715 109.149 425.234 109.106 424.728 109.106C423.904 109.106 423.26 109.269 422.797 109.587C422.333 109.904 422.102 110.359 422.102 110.96V111.003C422.102 111.552 422.316 111.973 422.745 112.264C423.174 112.556 423.698 112.702 424.324 112.702C424.762 112.702 425.157 112.642 425.534 112.53C425.903 112.419 426.229 112.256 426.504 112.041C426.779 111.835 426.993 111.578 427.148 111.277C427.302 110.977 427.379 110.651 427.379 110.291V109.561H427.354Z" fill="white"/>
<path d="M442.697 116.538C441.624 117.481 440.105 117.953 438.132 117.953C436.218 117.953 434.51 117.499 433 116.58L433.978 114.607C434.588 114.984 435.223 115.285 435.892 115.499C436.561 115.714 437.282 115.825 438.063 115.825C439.239 115.825 440.131 115.525 440.758 114.933C441.384 114.332 441.693 113.457 441.693 112.29V111.397C441.213 112.024 440.655 112.538 440.02 112.933C439.385 113.328 438.595 113.525 437.651 113.525C436.973 113.525 436.321 113.405 435.695 113.165C435.068 112.925 434.519 112.573 434.03 112.109C433.541 111.646 433.154 111.08 432.871 110.419C432.579 109.749 432.434 108.994 432.434 108.136C432.434 107.278 432.579 106.523 432.871 105.853C433.163 105.184 433.549 104.626 434.03 104.154C434.519 103.691 435.077 103.339 435.703 103.09C436.33 102.841 436.982 102.721 437.651 102.721C438.621 102.721 439.419 102.919 440.054 103.305C440.68 103.691 441.221 104.154 441.676 104.695V102.961H444.302V112.092C444.302 114.109 443.77 115.594 442.697 116.538ZM441.444 106.823C441.264 106.428 441.024 106.094 440.715 105.819C440.414 105.545 440.054 105.33 439.642 105.184C439.23 105.03 438.801 104.961 438.346 104.961C437.883 104.961 437.454 105.038 437.068 105.184C436.673 105.339 436.33 105.545 436.038 105.819C435.737 106.094 435.506 106.42 435.343 106.815C435.18 107.209 435.094 107.638 435.094 108.11C435.094 108.582 435.18 109.02 435.351 109.406C435.523 109.792 435.755 110.127 436.046 110.41C436.338 110.693 436.681 110.908 437.076 111.054C437.471 111.208 437.9 111.277 438.346 111.277C438.793 111.277 439.23 111.2 439.642 111.054C440.054 110.899 440.414 110.685 440.715 110.41C441.015 110.127 441.264 109.801 441.444 109.415C441.624 109.037 441.719 108.608 441.719 108.128C441.719 107.647 441.624 107.218 441.444 106.823Z" fill="white"/>
<path d="M450.713 111.783C451.305 112.281 452.034 112.53 452.884 112.53C453.536 112.53 454.102 112.418 454.574 112.178C455.055 111.947 455.527 111.603 455.99 111.157L457.535 112.53C456.986 113.182 456.325 113.706 455.57 114.092C454.806 114.487 453.896 114.675 452.841 114.675C452.017 114.675 451.245 114.53 450.524 114.238C449.803 113.946 449.185 113.543 448.653 113.019C448.121 112.496 447.709 111.869 447.4 111.14C447.1 110.41 446.945 109.595 446.945 108.694C446.945 107.87 447.083 107.089 447.357 106.369C447.632 105.648 448.018 105.013 448.516 104.463C449.013 103.923 449.606 103.485 450.284 103.168C450.961 102.85 451.717 102.687 452.541 102.687C453.45 102.687 454.257 102.85 454.943 103.185C455.63 103.519 456.205 103.966 456.66 104.532C457.114 105.098 457.458 105.759 457.689 106.506C457.921 107.261 458.041 108.05 458.041 108.874C458.041 108.994 458.041 109.106 458.033 109.226C458.024 109.346 458.016 109.466 457.998 109.595H449.571C449.743 110.565 450.121 111.286 450.713 111.783ZM455.45 107.887C455.407 107.467 455.312 107.072 455.166 106.703C455.021 106.334 454.823 106.017 454.583 105.751C454.334 105.485 454.042 105.27 453.699 105.107C453.356 104.944 452.97 104.867 452.541 104.867C451.725 104.867 451.056 105.15 450.532 105.699C450 106.257 449.683 106.986 449.563 107.879H455.45V107.887Z" fill="white"/>
</svg>
