<svg width="599" height="99" viewBox="0 0 599 99" fill="none" xmlns="http://www.w3.org/2000/svg">
<path d="M223.17 56.8745C226.139 57.8186 228.465 59.3977 230.147 61.629C231.829 63.8089 232.67 66.5037 232.67 69.722C232.67 74.2705 230.894 77.7892 227.324 80.2609C223.814 82.6896 218.664 83.8997 211.884 83.8997H185.014V31.9434H210.4C216.733 31.9434 221.582 33.1534 224.946 35.5822C228.362 38.0109 230.07 41.2979 230.07 45.4517C230.07 47.9748 229.452 50.2233 228.216 52.2058C227.032 54.1711 225.341 55.7331 223.17 56.8745ZM195.819 40.9889V53.2357H208.915C211.884 53.2357 214.133 52.7122 215.669 51.6737C217.205 50.6353 217.969 49.0991 217.969 47.0737C217.969 45.0483 217.205 43.5378 215.669 42.5423C214.133 41.5039 211.884 40.9804 208.915 40.9804H195.819V40.9889ZM210.992 74.837C214.159 74.837 216.536 74.3134 218.115 73.275C219.746 72.2366 220.561 70.6317 220.561 68.4518C220.561 64.1436 217.368 61.9981 210.983 61.9981H195.801V74.837H210.992Z" fill="#19233F"/>
<path d="M277.469 64.0738C277.469 64.2197 277.392 65.2581 277.246 67.1891H247.037C247.586 69.6607 248.865 71.6175 250.899 73.0507C252.924 74.4839 255.456 75.2048 258.468 75.2048C260.545 75.2048 262.373 74.9044 263.961 74.3123C265.591 73.6686 267.102 72.6817 268.492 71.3428L274.654 78.0198C270.895 82.328 265.402 84.4735 258.176 84.4735C253.671 84.4735 249.688 83.6067 246.23 81.8731C242.763 80.0881 240.094 77.6421 238.214 74.5268C236.335 71.4115 235.391 67.8757 235.391 63.9107C235.391 60.0058 236.309 56.4871 238.137 53.3718C240.016 50.205 242.565 47.7591 245.784 46.0255C249.053 44.2404 252.684 43.3564 256.691 43.3564C260.605 43.3564 264.141 44.1975 267.308 45.8796C270.474 47.5617 272.946 49.9904 274.731 53.1573C276.559 56.2726 277.469 59.9114 277.469 64.0738ZM256.76 52.1188C254.143 52.1188 251.937 52.8569 250.152 54.3416C248.367 55.8263 247.285 57.8517 246.882 60.4263H266.552C266.158 57.9032 265.068 55.895 263.283 54.4103C261.515 52.8826 259.335 52.1188 256.76 52.1188Z" fill="#19233F"/>
<path d="M293.646 49.2278C295.028 47.2968 296.89 45.8379 299.216 44.8509C301.593 43.864 304.314 43.3662 307.378 43.3662V54.051C306.091 53.948 305.224 53.9051 304.777 53.9051C301.465 53.9051 298.864 54.8491 296.985 56.7286C295.105 58.5566 294.161 61.3287 294.161 65.0447V83.8997H282.584V43.967H293.646V49.2278V49.2278Z" fill="#19233F"/>
<path d="M311.661 43.9578H323.239V83.8906H311.661V43.9578ZM317.454 38.388C315.326 38.388 313.592 37.7701 312.262 36.5343C310.923 35.2984 310.254 33.7622 310.254 31.9342C310.254 30.1062 310.923 28.57 312.262 27.3342C313.601 26.0984 315.335 25.4805 317.454 25.4805C319.574 25.4805 321.316 26.0726 322.646 27.2656C323.985 28.4499 324.655 29.9346 324.655 31.7197C324.655 33.6507 323.985 35.2555 322.646 36.5429C321.316 37.7701 319.583 38.388 317.454 38.388Z" fill="#19233F"/>
<path d="M350.685 84.4821C346.428 84.4821 342.592 83.6153 339.176 81.8817C335.812 80.0966 333.16 77.6507 331.238 74.5354C329.358 71.4201 328.414 67.8842 328.414 63.9193C328.414 59.9629 329.358 56.4185 331.238 53.3032C333.169 50.1878 335.812 47.7591 339.176 46.0255C342.592 44.2404 346.428 43.3564 350.685 43.3564C354.89 43.3564 358.555 44.249 361.67 46.0255C364.837 47.7591 367.137 50.2565 368.57 53.5263L359.593 58.3495C357.516 54.6849 354.521 52.8569 350.608 52.8569C347.587 52.8569 345.089 53.8438 343.107 55.8263C341.124 57.8088 340.137 60.5036 340.137 63.9193C340.137 67.335 341.124 70.0298 343.107 72.0123C345.089 73.9947 347.587 74.9817 350.608 74.9817C354.564 74.9817 357.559 73.1537 359.593 69.4891L368.57 74.3895C367.137 77.5563 364.837 80.028 361.67 81.8131C358.555 83.5896 354.899 84.4821 350.685 84.4821Z" fill="#19233F"/>
<path d="M396.624 43.3657C401.576 43.3657 405.558 44.8505 408.57 47.8199C411.643 50.7893 413.17 55.192 413.17 61.0278V83.8907H401.593V62.8129C401.593 59.6461 400.898 57.2946 399.516 55.7584C398.134 54.1707 396.126 53.3811 393.509 53.3811C390.591 53.3811 388.265 54.2994 386.531 56.1274C384.798 57.9125 383.931 60.5815 383.931 64.1431V83.8907H372.354V32.6123H383.931V48.1117C385.467 46.5755 387.321 45.4169 389.501 44.6273C391.681 43.7863 394.049 43.3657 396.624 43.3657Z" fill="#19233F"/>
<path d="M462.251 74.2866V83.9329H422.018V31.9766H461.281V41.6229H433.964V52.9084H458.088V62.263H433.964V74.2866H462.251V74.2866Z" fill="#2EA944"/>
<path d="M493.284 83.8898L484.522 71.6431L475.467 83.8898H462.852L478.214 63.7732L463.366 43.957H476.36L484.822 55.6116L493.507 43.957H505.831L490.984 63.4814L506.423 83.8898H493.284Z" fill="#2EA944"/>
<path d="M533.046 43.3662C536.762 43.3662 540.127 44.233 543.139 45.9666C546.211 47.6487 548.606 50.0517 550.339 53.167C552.073 56.2309 552.94 59.8182 552.94 63.929C552.94 68.0399 552.073 71.6444 550.339 74.7683C548.606 77.8321 546.211 80.2351 543.139 81.9687C540.118 83.6508 536.754 84.4919 533.046 84.4919C527.948 84.4919 523.941 82.887 521.023 79.6687V98.3006H509.445V43.967H520.508V48.567C523.374 45.0912 527.554 43.3662 533.046 43.3662ZM531.047 74.9829C534.016 74.9829 536.436 73.9959 538.316 72.0134C540.247 69.9881 541.208 67.2847 541.208 63.9205C541.208 60.5563 540.247 57.8872 538.316 55.9047C536.436 53.8794 534.007 52.8581 531.047 52.8581C528.077 52.8581 525.631 53.8708 523.7 55.9047C521.821 57.8872 520.877 60.5563 520.877 63.9205C520.877 67.2847 521.821 69.9795 523.7 72.0134C525.623 73.9959 528.077 74.9829 531.047 74.9829Z" fill="#2EA944"/>
<path d="M577.097 84.4821C572.892 84.4821 569.107 83.6153 565.743 81.8817C562.43 80.0966 559.83 77.6507 557.951 74.5354C556.071 71.4201 555.127 67.8757 555.127 63.9193C555.127 59.9629 556.062 56.4185 557.951 53.3032C559.83 50.1878 562.43 47.7591 565.743 46.0255C569.107 44.2404 572.892 43.3564 577.097 43.3564C581.303 43.3564 585.062 44.249 588.383 46.0255C591.696 47.7591 594.296 50.1793 596.175 53.3032C598.055 56.4185 598.999 59.9543 598.999 63.9193C598.999 67.8757 598.055 71.4201 596.175 74.5354C594.296 77.6507 591.696 80.1052 588.383 81.8817C585.062 83.6153 581.303 84.4821 577.097 84.4821ZM577.097 74.9817C580.067 74.9817 582.487 73.9947 584.375 72.0123C586.306 69.9869 587.267 67.2835 587.267 63.9193C587.267 60.5551 586.306 57.886 584.375 55.9036C582.495 53.8782 580.067 52.8569 577.097 52.8569C574.128 52.8569 571.682 53.8696 569.751 55.9036C567.82 57.886 566.859 60.5551 566.859 63.9193C566.859 67.2835 567.82 69.9783 569.751 72.0123C571.673 73.9947 574.128 74.9817 577.097 74.9817Z" fill="#2EA944"/>
<path d="M130.355 58.7279L117.739 83.8908L108.282 65.0273L120.589 56.119H103.819L98.2578 45.0308L110.874 19.8594L130.355 58.7279Z" fill="#2EA944"/>
<path d="M50.4634 33.5645L37.8562 58.7359L37.8477 58.7273L50.4634 33.5645Z" fill="#6EB640"/>
<path d="M63.0782 58.7198L50.4624 83.8913L39.4258 61.8695L52.033 36.6895L63.0782 58.7198Z" fill="#2EA944"/>
<path d="M50.4631 33.5645L37.8473 58.7273L28.8961 76.5954C26.6562 81.0667 22.0647 83.8902 17.0441 83.8902H0L21.567 40.8679C23.8069 36.3966 28.3983 33.573 33.4189 33.573H50.4631V33.5645Z" fill="#19233F"/>
<path d="M96.6965 41.8975L95.3577 44.5666L95.392 44.5837L89.6076 56.1181H73.2072L85.2393 64.829L79.3434 76.5866C77.1034 81.0579 72.512 83.8814 67.4914 83.8814H50.4473L63.063 58.71L80.4247 24.081C82.6647 19.6097 87.2561 16.7861 92.2767 16.7861H109.252L96.6965 41.8975Z" fill="#19233F"/>
<path d="M109.329 16.7949L109.321 16.8207L96.7134 41.9578L95.3917 44.5839L95.3574 44.5668L96.6962 41.8977L109.261 16.7949H109.329V16.7949Z" fill="#524E9C"/>
<path d="M185.015 0.0173731L146.627 76.5874C144.387 81.0587 139.795 83.8822 134.775 83.8822H117.73L130.346 58.7193L156.118 7.30362C158.358 2.83232 162.95 0.00878906 167.97 0.00878906H185.015V0.0173731Z" fill="#19233F"/>
<path d="M79.291 83.8144H114.512L96.9102 71.0527L79.291 83.8144Z" fill="#2EA944"/>
</svg>
