<svg width="283" height="388" viewBox="0 0 283 388" fill="none" xmlns="http://www.w3.org/2000/svg">
<path d="M0.903107 381.207C0.512573 380.817 0.512573 380.183 0.903107 379.793L7.26706 373.429C7.65759 373.038 8.29074 373.038 8.68127 373.429C9.07178 373.819 9.07178 374.453 8.68127 374.843L3.02441 380.5L8.68127 386.157C9.07178 386.547 9.07178 387.181 8.68127 387.571C8.29074 387.962 7.65759 387.962 7.26706 387.571L0.903107 381.207ZM279.108 0.433628C286.608 113.176 282.618 208.46 244.002 275.561C205.307 342.8 132.01 381.5 1.6102 381.5V379.5C131.61 379.5 204.064 340.95 242.269 274.564C280.552 208.04 284.613 113.324 277.113 0.566372L279.108 0.433628Z" fill="#19233F"/>
</svg>
