<svg width="279" height="217" viewBox="0 0 279 217" fill="none" xmlns="http://www.w3.org/2000/svg">
<path d="M278.317 210.207C278.708 209.817 278.708 209.183 278.317 208.793L271.953 202.429C271.563 202.038 270.93 202.038 270.539 202.429C270.149 202.819 270.149 203.453 270.539 203.843L276.196 209.5L270.539 215.157C270.149 215.547 270.149 216.181 270.539 216.571C270.93 216.962 271.563 216.962 271.953 216.571L278.317 210.207ZM0.610352 0.500001C0.610476 90.7913 31.2941 143.416 81.452 173.382C131.492 203.276 200.739 210.5 277.61 210.5V208.5C200.76 208.5 132.008 201.255 82.4777 171.665C33.0661 142.145 2.61048 90.2703 2.61035 0.499999L0.610352 0.500001Z" fill="#19233F"/>
</svg>
