<svg width="282" height="389" viewBox="0 0 282 389" fill="none" xmlns="http://www.w3.org/2000/svg">
<path d="M281.318 381.707C281.708 381.317 281.708 380.683 281.318 380.293L274.954 373.929C274.563 373.538 273.93 373.538 273.539 373.929C273.149 374.319 273.149 374.953 273.539 375.343L279.196 381L273.539 386.657C273.149 387.047 273.149 387.681 273.539 388.071C273.93 388.462 274.563 388.462 274.954 388.071L281.318 381.707ZM3.11259 0.933628C-4.38692 113.676 -0.39774 208.96 38.2187 276.061C76.9138 343.3 150.21 382 280.611 382V380C150.611 380 78.1571 341.45 39.9522 275.064C1.66854 208.54 -2.39234 113.824 5.10818 1.06637L3.11259 0.933628Z" fill="#19233F"/>
</svg>
